<svg id="レイヤー_1" data-name="レイヤー 1" xmlns="http://www.w3.org/2000/svg" viewBox="0 0 25 25"><defs><style>.cls-1{fill:#6b584c;}</style></defs><rect width="25" height="25"/><path id="Icon_awesome-instagram" data-name="Icon awesome-instagram" class="cls-1" d="M12.5,6.09a6.41,6.41,0,1,0,6.41,6.41h0a6.4,6.4,0,0,0-6.39-6.41Zm0,10.58a4.17,4.17,0,1,1,4.17-4.17h0a4.17,4.17,0,0,1-4.17,4.16ZM20.67,5.83a1.5,1.5,0,0,1-3,0,1.5,1.5,0,0,1,3,0Zm4.24,1.52a7.37,7.37,0,0,0-2-5.24,7.41,7.41,0,0,0-5.23-2C15.59,0,9.41,0,7.34.09a7.44,7.44,0,0,0-5.24,2,7.44,7.44,0,0,0-2,5.24C0,9.4,0,15.59.09,17.65a7.41,7.41,0,0,0,2,5.24,7.45,7.45,0,0,0,5.24,2c2.07.12,8.25.12,10.32,0a7.37,7.37,0,0,0,5.23-2,7.41,7.41,0,0,0,2-5.23c.12-2.07.12-8.25,0-10.31ZM22.25,19.87a4.17,4.17,0,0,1-2.38,2.37c-1.65.66-5.55.5-7.37.5s-5.73.15-7.37-.5a4.19,4.19,0,0,1-2.37-2.37c-.66-1.65-.5-5.55-.5-7.37s-.15-5.73.5-7.37A4.23,4.23,0,0,1,5.13,2.75c1.65-.65,5.55-.5,7.37-.5s5.73-.14,7.37.5a4.22,4.22,0,0,1,2.38,2.38c.65,1.65.5,5.55.5,7.37S22.9,18.23,22.25,19.87Z"/></svg>