<svg id="レイヤー_1" data-name="レイヤー 1" xmlns="http://www.w3.org/2000/svg" viewBox="0 0 25 25"><defs><style>.cls-1{fill:#6b584c;}</style></defs><rect width="25" height="25"/><path id="Icon_awesome-twitter" data-name="Icon awesome-twitter" class="cls-1" d="M22.43,6.23c0,.27,0,.55,0,.82,0,8.34-5.16,18-14.58,18A12.6,12.6,0,0,1,0,22.17a8.52,8.52,0,0,0,1.24.08,9.13,9.13,0,0,0,6.36-2.7c-2.25-.06-4.14-1.88-4.79-4.38a4.5,4.5,0,0,0,1,.1,4.36,4.36,0,0,0,1.34-.21C2.78,14.47,1,11.93,1,8.87V8.79a4.44,4.44,0,0,0,2.32.8A6.78,6.78,0,0,1,1.05,4.34a7.34,7.34,0,0,1,.7-3.19,13.87,13.87,0,0,0,10.56,6.6,9.88,9.88,0,0,1-.13-1.44C12.18,2.83,14.47,0,17.31,0a4.75,4.75,0,0,1,3.74,2A9,9,0,0,0,24.3.47,6.26,6.26,0,0,1,22.05,4,8.85,8.85,0,0,0,25,3a12.68,12.68,0,0,1-2.57,3.26Z" transform="translate(0 0)"/></svg>